<?xml version="1.0" standalone="no"?>
<!DOCTYPE svg PUBLIC "-//W3C//DTD SVG 20010904//EN"
 "http://www.w3.org/TR/2001/REC-SVG-20010904/DTD/svg10.dtd">
<svg version="1.0" xmlns="http://www.w3.org/2000/svg"
 width="502.000000pt" height="497.000000pt" viewBox="0 0 502.000000 497.000000"
 preserveAspectRatio="xMidYMid meet">

<g transform="translate(0.000000,497.000000) scale(0.100000,-0.100000)"
fill="#000000" stroke="none">
<path d="M2435 4846 c-642 -333 -1132 -648 -1620 -1039 -375 -301 -795 -688
-795 -734 0 -40 61 -376 101 -558 163 -740 390 -1389 728 -2081 l118 -241 74
-11 c737 -115 1547 -140 2339 -71 204 17 641 72 671 84 18 7 215 405 314 635
284 660 481 1320 609 2035 14 77 28 160 31 185 l6 45 -113 111 c-453 445 -992
865 -1563 1221 -274 171 -794 455 -826 452 -8 -1 -41 -16 -74 -33z m73 -714
c2 -117 2 -122 -18 -122 -17 0 -20 6 -20 50 l0 50 -40 0 -40 0 0 -55 c0 -48
-2 -55 -20 -55 -18 0 -20 7 -20 79 0 43 -3 99 -6 125 -7 45 -6 46 20 46 24 0
26 -3 26 -45 l0 -45 38 0 c38 0 38 0 34 35 -5 45 4 67 25 63 16 -3 18 -18 21
-126z m228 78 c-4 -27 -4 -50 0 -50 3 0 24 18 45 40 25 26 48 40 64 40 35 0
31 -13 -15 -52 l-40 -33 25 -74 c31 -91 31 -93 3 -89 -18 2 -27 16 -43 66 -20
62 -21 63 -38 44 -10 -11 -21 -36 -24 -56 -4 -27 -10 -36 -26 -36 -22 0 -22
-8 4 173 10 67 14 77 31 77 19 0 20 -4 14 -50z m-458 -92 c39 -84 49 -114 40
-120 -21 -13 -28 -10 -40 17 -10 23 -17 26 -52 23 -36 -3 -41 -6 -44 -30 -3
-24 -28 -45 -40 -33 -5 5 12 121 30 208 8 39 13 47 32 47 18 0 31 -19 74 -112z
m755 72 c4 0 7 -10 7 -21 0 -22 -9 -22 -93 -6 -7 1 -13 -10 -15 -24 -3 -24 1
-27 35 -34 49 -9 52 -11 46 -34 -4 -16 -10 -17 -45 -9 -47 10 -48 10 -51 -28
-2 -26 2 -29 43 -38 55 -11 52 -9 43 -33 -8 -19 -11 -19 -70 -6 -72 16 -70 11
-48 134 26 143 16 129 82 113 32 -7 61 -13 66 -14z m-961 -22 c20 -20 20 -22
3 -34 -16 -12 -21 -11 -37 3 -14 13 -23 14 -42 5 -31 -14 -40 -42 -27 -90 15
-54 44 -78 79 -66 17 6 28 18 30 33 3 20 0 23 -21 19 -37 -7 -45 29 -11 43 49
18 61 12 74 -38 13 -46 13 -46 -18 -75 -47 -42 -100 -39 -140 6 -33 37 -48 97
-37 146 14 64 102 93 147 48z m1138 -47 c0 -4 -13 -47 -30 -97 -30 -89 -55
-124 -91 -124 -29 0 -59 36 -59 70 0 23 4 30 20 30 14 0 20 -7 20 -24 0 -27
24 -41 38 -23 5 7 22 51 37 98 24 72 31 86 47 81 10 -2 18 -7 18 -11z m-1309
-92 c72 -143 58 -163 -55 -78 l-67 51 26 -54 c14 -29 30 -61 35 -70 7 -13 5
-20 -8 -27 -16 -8 -25 4 -70 95 -29 57 -52 108 -52 113 0 5 7 12 16 15 11 4
37 -9 72 -36 84 -64 86 -64 53 1 -34 67 -38 91 -16 91 9 0 35 -41 66 -101z
m1382 54 c3 -5 -10 -42 -29 -83 -38 -84 -40 -102 -19 -120 23 -19 41 1 82 92
35 76 49 91 59 65 7 -20 -71 -184 -95 -196 -30 -16 -59 -13 -81 9 -29 29 -25
60 17 156 34 76 53 98 66 77z m-1603 -62 c8 -17 3 -23 -35 -46 -50 -29 -49
-28 -35 -56 11 -19 12 -19 55 6 43 26 44 26 55 6 9 -18 6 -23 -30 -41 -43 -22
-48 -35 -26 -65 13 -18 15 -18 58 8 34 20 48 23 56 15 7 -7 12 -15 12 -19 0
-8 -130 -83 -135 -77 -1 1 -28 50 -59 108 l-56 106 63 36 c34 21 63 37 64 38
1 0 7 -9 13 -19z m1810 -37 c22 -14 42 -35 45 -45 9 -27 -23 -80 -55 -92 -25
-9 -29 -17 -35 -65 -5 -42 -10 -52 -22 -48 -8 3 -16 6 -18 6 -3 0 -2 29 2 65
7 77 -4 84 -43 26 -16 -25 -31 -38 -40 -34 -8 3 -14 7 -14 10 0 8 130 203 135
203 3 0 23 -12 45 -26z m-1860 -255 c0 -4 -6 -12 -14 -18 -12 -10 -30 -4 -93
31 l-78 42 47 -67 c42 -60 45 -68 30 -76 -15 -8 -29 6 -86 90 -87 129 -78 149
38 84 35 -19 66 -35 70 -35 4 0 -12 27 -35 60 -35 50 -40 62 -29 75 11 13 23
1 81 -82 38 -54 69 -101 69 -104z m1210 168 c408 -98 738 -336 945 -683 88
-146 140 -284 181 -475 25 -117 25 -399 0 -519 -92 -443 -350 -799 -730 -1009
-183 -101 -405 -169 -576 -176 l-95 -4 85 9 c419 42 801 255 1042 581 132 178
212 358 260 584 29 133 31 385 5 525 -115 614 -607 1084 -1231 1176 -141 21
-379 14 -511 -14 -228 -49 -446 -151 -617 -289 -479 -384 -664 -1004 -472
-1581 184 -552 699 -944 1294 -985 36 -3 32 -4 -17 -5 -133 -4 -387 64 -557
150 -189 95 -392 265 -522 438 -69 91 -180 304 -214 410 -39 121 -61 253 -67
395 -27 681 427 1284 1099 1461 139 36 210 43 403 40 160 -3 206 -8 295 -29z
m777 -26 c-49 -57 -107 -133 -107 -141 0 -15 30 -39 44 -34 7 3 39 36 70 75
47 56 61 68 72 58 11 -9 3 -24 -48 -86 -85 -102 -109 -113 -153 -68 -38 37
-32 63 41 153 54 68 69 81 80 71 12 -10 12 -14 1 -28z m-917 -415 l0 -384 24
-6 c13 -3 31 -9 40 -12 14 -5 16 26 18 302 l3 309 138 3 137 3 0 -349 c0 -313
2 -354 18 -403 11 -30 128 -301 262 -604 217 -493 242 -555 242 -602 -1 -73
-26 -154 -65 -205 l-33 -43 -352 -3 -352 -2 0 174 0 174 -40 -15 -40 -16 0
-222 c0 -219 0 -222 -26 -274 -36 -71 -88 -106 -158 -105 -68 1 -128 33 -163
86 l-28 41 -3 236 c-2 209 -5 238 -20 250 -16 13 -16 13 0 8 113 -39 294 -43
395 -10 198 65 375 254 434 463 20 71 17 292 -5 365 -71 231 -245 403 -466
460 -89 23 -250 16 -340 -15 -185 -63 -346 -227 -411 -420 -15 -46 -23 -99
-27 -181 -4 -105 -2 -126 22 -208 32 -113 61 -171 123 -248 62 -76 102 -112
188 -163 39 -23 60 -38 48 -35 l-23 6 -2 -173 -3 -173 -43 -3 c-49 -4 -153 21
-196 46 -17 10 -39 32 -49 50 -24 40 -17 76 29 143 19 28 34 53 34 55 0 2 -24
15 -54 28 -200 88 -341 268 -412 524 l-17 62 -124 0 c-137 0 -162 7 -207 60
-55 66 -93 197 -81 279 10 69 49 129 98 152 35 15 67 19 183 19 l142 0 48 87
c72 128 183 242 288 293 48 24 103 43 134 47 31 3 56 12 59 19 3 8 -6 69 -20
136 -27 133 -26 171 6 193 22 15 121 20 164 9 l23 -6 2 -308 3 -308 35 17 35
16 -3 373 c-2 204 0 377 3 382 4 6 81 10 196 10 l189 0 0 -384z m-1371 331 c8
-10 2 -21 -24 -47 -40 -39 -40 -39 -21 -66 14 -18 16 -18 54 19 35 34 40 36
52 22 11 -14 8 -21 -24 -54 l-36 -37 23 -22 23 -22 39 40 c35 36 41 38 54 25
14 -13 9 -21 -39 -70 l-55 -56 -44 48 c-25 26 -63 67 -85 91 l-40 42 49 50
c54 55 57 56 74 37z m2491 -72 c11 -13 5 -34 -35 -123 -55 -124 -59 -130 -79
-113 -14 11 -14 16 -1 41 13 26 12 29 -15 55 -27 26 -31 27 -52 13 -21 -14
-26 -14 -43 -1 -11 9 -15 17 -10 19 6 3 55 31 110 63 55 33 103 60 106 60 4 1
12 -6 19 -14z m-2523 -177 c37 -38 50 -57 44 -67 -7 -11 -20 -4 -60 30 -28 24
-51 47 -51 50 0 4 -7 9 -15 13 -8 3 8 -26 37 -65 43 -61 49 -73 37 -85 -12
-12 -24 -8 -79 26 -36 22 -68 39 -73 40 -4 0 20 -26 54 -58 52 -48 59 -59 47
-70 -12 -9 -30 3 -104 72 l-89 84 22 22 21 23 60 -37 c33 -20 63 -36 67 -36 3
0 -14 29 -38 64 l-45 64 21 20 20 21 36 -29 c20 -16 59 -52 88 -82z m2666 18
c3 -8 -13 -49 -35 -91 -22 -43 -34 -74 -27 -69 8 4 35 23 60 41 50 36 65 40
72 21 4 -14 -169 -147 -191 -148 -26 0 -22 30 12 99 20 39 36 73 36 76 0 4
-27 -14 -59 -39 -51 -40 -61 -44 -72 -30 -10 12 -9 17 7 28 10 8 53 39 94 69
80 59 95 65 103 43z m-2938 -302 c58 -26 105 -50 105 -53 0 -3 -4 -12 -8 -19
-7 -10 -19 -8 -57 8 -26 11 -49 19 -49 18 -8 -14 -26 -61 -26 -67 0 -5 20 -16
45 -25 42 -17 57 -37 36 -51 -14 -8 -221 86 -221 101 0 22 16 25 54 9 43 -18
50 -15 64 23 9 28 8 30 -34 50 -31 15 -42 26 -38 37 4 8 10 15 15 15 4 0 56
-21 114 -46z m3168 -58 c4 -9 -19 -42 -56 -82 -34 -37 -53 -64 -42 -60 29 12
128 46 132 46 1 0 3 -9 3 -19 0 -15 -19 -26 -87 -51 -117 -42 -139 -46 -146
-26 -4 9 1 24 11 35 9 10 37 39 62 65 l44 46 -74 -25 c-40 -14 -75 -25 -77
-25 -2 0 -3 8 -3 19 0 14 22 26 98 54 109 40 128 43 135 23z m-3157 -211 c-3
-8 -18 -15 -34 -15 -24 0 -30 -6 -40 -37 -11 -35 -10 -39 15 -59 20 -16 24
-24 16 -37 -8 -15 -22 -9 -112 54 -83 57 -102 75 -99 92 3 21 9 22 128 27 69
3 127 1 128 -3 2 -4 1 -14 -2 -22z m3241 -72 c6 -38 7 -72 2 -77 -17 -19 -36
4 -43 52 -6 46 -8 49 -31 44 -24 -4 -25 -8 -23 -55 2 -42 0 -52 -14 -55 -14
-3 -18 7 -24 48 -7 51 -7 51 -38 44 -17 -3 -32 -7 -34 -9 -1 -1 2 -24 7 -51 5
-27 7 -52 5 -56 -10 -16 -34 -7 -38 15 -16 76 -24 122 -21 125 4 5 195 40 221
41 18 1 22 -8 31 -66z m-1712 3 c36 -16 75 -67 75 -101 0 -31 -36 -82 -70
-100 -24 -12 -30 -22 -30 -48 0 -26 6 -36 33 -50 18 -10 41 -31 51 -48 14 -23
24 -29 51 -29 28 0 37 6 49 29 41 78 140 81 187 4 18 -28 26 -33 60 -33 32 0
39 -4 39 -19 0 -14 -10 -20 -44 -25 -33 -5 -46 -13 -55 -32 -6 -14 -24 -33
-41 -42 -16 -9 -30 -24 -30 -32 0 -8 -3 -25 -6 -37 -5 -17 -2 -23 9 -23 19 0
77 -47 77 -63 0 -6 20 -30 45 -54 43 -41 45 -45 45 -99 0 -64 -19 -103 -60
-128 -25 -14 -76 -16 -430 -16 l-402 0 -39 39 c-35 35 -39 44 -39 91 0 58 20
102 57 121 13 7 31 28 40 46 9 19 29 41 44 49 25 12 29 21 29 54 0 33 -4 42
-29 55 -16 8 -35 28 -43 45 -11 27 -18 30 -55 30 -36 0 -43 3 -43 20 0 17 7
20 43 20 36 1 45 5 62 33 11 18 30 36 43 42 31 14 33 90 2 100 -35 11 -60 54
-60 102 0 36 6 50 29 74 24 24 38 29 76 29 46 0 70 -15 100 -62 6 -9 26 -18
46 -21 33 -5 37 -2 52 27 8 18 30 40 49 49 41 20 41 20 83 3z m-1603 -201 c-2
-33 -7 -64 -12 -68 -11 -12 -240 19 -240 32 1 25 19 28 108 16 67 -8 95 -8 97
-1 2 6 6 28 10 49 5 29 10 37 23 35 14 -3 16 -14 14 -63z m3309 29 c32 -16 54
-64 45 -99 -13 -50 -76 -89 -76 -46 0 10 7 24 15 31 22 18 19 67 -4 80 -29 15
-93 12 -119 -6 -22 -15 -27 -38 -16 -68 9 -24 44 -20 44 4 0 13 7 20 20 20 17
0 20 -7 20 -45 l0 -45 -50 0 c-42 0 -52 4 -66 25 -9 14 -17 43 -18 65 -2 88
109 133 205 84z m-3380 -179 c43 -23 63 -68 49 -111 -16 -48 -44 -64 -111 -64
-98 0 -161 67 -128 136 29 60 115 77 190 39z m3429 -53 c3 -4 4 -37 2 -74 -3
-59 -6 -68 -23 -68 -16 0 -19 7 -19 55 0 52 -1 55 -25 55 -23 0 -25 -3 -25
-50 0 -43 -3 -50 -20 -50 -17 0 -20 7 -20 50 l0 50 -35 0 -35 0 0 -55 c0 -48
-2 -55 -20 -55 -18 0 -20 7 -20 78 l0 77 118 -3 c64 -2 119 -7 122 -10z
m-3370 -222 c0 -9 -21 -33 -46 -54 -46 -39 -46 -39 -23 -51 15 -9 32 -10 53
-4 43 12 46 12 46 -11 0 -14 -10 -22 -37 -29 -153 -40 -194 -48 -199 -40 -12
20 6 37 45 44 23 4 41 10 41 13 0 4 -24 17 -53 28 -31 13 -57 31 -64 45 -16
32 -3 35 46 10 22 -12 46 -21 53 -21 8 0 38 25 68 55 53 54 69 57 70 15z
m3240 5 c62 -8 115 -17 118 -20 2 -2 1 -29 -3 -60 -7 -62 -31 -95 -68 -95 -29
0 -67 26 -67 46 0 9 -3 14 -7 12 -26 -13 -105 -48 -109 -48 -2 0 -4 10 -4 23
0 19 11 28 54 46 53 22 78 48 53 56 -6 2 -29 6 -49 10 -29 4 -38 11 -38 25 0
11 1 20 3 20 2 0 54 -7 117 -15z m-50 -230 c115 -28 130 -35 130 -57 0 -12 -5
-18 -12 -15 -7 2 -61 17 -120 32 -98 26 -121 39 -101 58 4 4 14 5 22 3 9 -3
45 -12 81 -21z m-3119 -70 c10 -38 17 -70 16 -71 -10 -7 -229 -55 -233 -51 -7
7 -34 108 -34 130 0 10 8 17 19 17 14 0 21 -9 26 -32 13 -64 16 -69 38 -66 23
3 26 18 13 74 -6 25 -3 33 10 38 21 8 31 -6 40 -57 5 -34 9 -38 28 -33 11 3
25 6 30 6 9 0 2 72 -10 104 -6 14 -2 17 16 14 20 -2 26 -14 41 -73z m2985
-123 c5 -5 34 -23 65 -40 l55 -31 -4 30 c-4 29 -3 30 17 20 11 -7 21 -20 21
-31 0 -10 5 -31 12 -45 22 -50 -4 -46 -110 16 -56 33 -102 64 -102 68 0 20 28
28 46 13z m-2912 -34 c26 -36 21 -93 -10 -117 -15 -12 -31 -21 -35 -21 -15 0
-10 37 7 50 8 8 14 25 12 39 -2 20 -9 26 -28 26 -22 0 -26 -6 -35 -49 -11 -50
-42 -86 -75 -86 -54 0 -90 90 -51 129 11 11 26 21 31 21 19 0 22 -29 6 -45
-20 -20 -20 -26 -1 -51 15 -19 15 -19 30 0 8 11 15 34 15 51 0 45 32 75 80 75
29 0 43 -6 54 -22z m2893 -66 c16 -10 -1 -37 -24 -37 -12 0 -18 -8 -18 -24 0
-31 38 -47 60 -25 18 18 35 10 35 -15 0 -23 25 -45 40 -36 7 4 9 16 7 27 -3
11 -3 26 0 34 8 22 43 -12 43 -43 0 -28 -33 -63 -60 -63 -20 0 -60 32 -60 48
0 5 -14 7 -31 4 -63 -9 -104 73 -59 118 21 21 46 25 67 12z m-2734 -382 c22
-30 110 -125 194 -210 l154 -155 43 49 43 48 74 -40 c90 -49 151 -75 289 -119
58 -19 89 -31 70 -28 -70 11 -208 61 -318 116 l-113 56 -96 -110 c-108 -125
-108 -109 -2 -171 82 -49 230 -114 344 -151 429 -141 880 -116 1314 72 84 36
273 133 290 149 2 2 -20 29 -48 61 -28 31 -51 62 -51 68 0 6 -16 30 -35 53
l-36 41 -72 -39 c-159 -85 -375 -153 -573 -180 -107 -15 -407 -9 -502 10 -98
19 -67 22 49 4 145 -22 434 -14 574 16 144 31 298 84 421 146 60 30 110 50
113 45 4 -4 21 -25 39 -45 l33 -38 65 57 c124 109 283 295 350 410 l29 50 8
-70 c4 -38 5 -94 2 -123 l-5 -52 27 6 c34 8 88 33 128 59 l30 20 -34 -60 c-59
-105 -143 -216 -241 -314 -103 -103 -262 -233 -288 -235 -10 0 -23 12 -32 30
l-15 30 -90 -47 c-315 -166 -709 -250 -1030 -220 -243 23 -471 87 -680 191
l-117 57 -10 -23 c-6 -13 -16 -24 -23 -24 -22 0 -222 169 -315 266 -90 95
-164 192 -224 297 -26 43 -24 65 3 33 11 -13 81 -46 128 -60 22 -7 22 -5 26
96 l3 103 2 -108 2 -109 -32 7 c-18 4 -51 16 -72 26 -22 10 -42 17 -44 14 -3
-3 26 -51 64 -108 80 -118 237 -281 368 -382 84 -65 89 -68 102 -50 20 27 18
31 -21 55 l-35 22 19 27 c11 15 27 34 36 41 9 7 25 26 36 42 l20 28 -110 106
c-151 144 -331 371 -331 416 0 7 14 -12 32 -42 17 -30 49 -80 71 -110z m1290
-367 c-13 -2 -33 -2 -45 0 -13 2 -3 4 22 4 25 0 35 -2 23 -4z m-618 -56 c49
-28 61 -75 24 -100 -12 -9 -18 -20 -14 -27 12 -19 -4 -59 -29 -75 -23 -15 -28
-15 -75 6 -28 12 -51 25 -51 29 0 19 85 190 95 190 5 0 28 -10 50 -23z m1269
-6 c21 -23 8 -34 -29 -25 -50 13 -71 -36 -40 -96 19 -36 60 -49 82 -27 20 20
10 47 -15 40 -35 -9 -34 24 0 42 35 17 39 15 58 -33 10 -27 10 -38 0 -56 -13
-25 -49 -46 -78 -46 -45 0 -101 80 -102 143 0 61 85 101 124 58z m-181 -152
c37 -139 24 -154 -55 -63 -27 30 -48 51 -48 48 0 -3 7 -31 16 -61 13 -46 14
-57 3 -64 -7 -4 -14 -7 -15 -6 -1 1 -16 48 -32 105 -27 91 -28 104 -14 109 11
5 32 -12 69 -53 l53 -59 -19 67 c-11 36 -17 69 -13 72 17 18 30 -4 55 -95z
m-883 -35 c0 -63 -2 -114 -4 -114 -20 0 -36 16 -36 36 0 17 -8 28 -27 35 -24
9 -30 7 -45 -11 -11 -14 -24 -20 -34 -16 -18 7 -23 -3 63 127 35 52 49 66 64
62 17 -5 19 -15 19 -119z m164 1 l22 -70 8 40 c15 86 18 95 32 95 17 0 18 0
-3 -120 -13 -82 -19 -100 -33 -100 -13 0 -22 17 -35 65 -10 36 -21 68 -25 70
-4 3 -11 -22 -14 -55 -5 -43 -11 -60 -21 -60 -18 0 -18 18 -4 113 13 92 16 99
35 95 10 -2 24 -29 38 -73z m490 59 c3 -9 9 -53 12 -98 6 -79 6 -84 -17 -99
-58 -41 -97 -14 -115 79 -18 92 -18 124 1 124 14 0 16 -8 33 -114 8 -57 32
-80 57 -55 14 13 14 25 6 80 -6 35 -11 72 -11 82 0 21 26 23 34 1z m-224 -31
c19 -24 21 -38 18 -92 -5 -78 -26 -101 -94 -101 l-44 0 0 110 0 110 49 0 c42
0 53 -4 71 -27z m-545 -315 c3 -24 9 -51 11 -60 4 -12 0 -18 -10 -18 -9 0 -16
7 -16 15 0 18 -31 20 -48 3 -24 -24 -23 1 2 51 32 63 52 66 61 9z m1064 -9
c22 -51 22 -74 -1 -51 -17 17 -48 15 -48 -3 0 -8 -6 -15 -14 -15 -11 0 -12 9
-4 48 5 26 11 53 13 60 9 27 34 9 54 -39z m-977 -1 l23 -43 3 38 c3 39 22 52
22 15 0 -43 -13 -98 -22 -98 -5 0 -19 21 -31 48 l-22 47 -3 -42 c-3 -44 -22
-61 -22 -20 0 40 12 97 21 97 5 0 19 -19 31 -42z m882 -14 c4 -31 4 -59 1 -62
-12 -12 -24 15 -25 58 -2 57 -2 60 9 60 4 0 11 -25 15 -56z m-125 5 l19 -41 7
41 c5 31 11 41 26 41 13 0 19 -7 19 -24 0 -13 3 -38 6 -55 9 -45 -12 -39 -23
7 l-10 37 -7 -43 c-9 -50 -24 -50 -42 -1 l-12 34 -1 -37 c-1 -59 -21 -44 -21
15 0 48 5 67 17 67 2 0 12 -19 22 -41z m-619 -11 c6 -24 13 -51 16 -60 7 -25
-13 -23 -26 2 -13 24 -35 26 -44 5 -9 -24 -28 -18 -20 7 31 97 57 113 74 46z
m62 -11 c-3 -42 -1 -47 17 -47 11 0 23 -4 26 -10 4 -6 -8 -10 -29 -10 l-36 0
0 61 c0 44 3 60 13 56 8 -2 11 -19 9 -50z m448 46 c0 -5 -7 -17 -15 -27 -13
-17 -12 -22 6 -48 28 -39 14 -51 -17 -15 l-24 28 0 -25 c0 -16 -6 -26 -15 -26
-12 0 -15 13 -15 55 0 30 5 55 10 55 6 0 10 -10 10 -22 1 -22 1 -22 21 5 20
26 39 36 39 20z m45 -48 c7 -54 3 -76 -12 -62 -3 4 -8 32 -11 62 -6 73 14 73
23 0z m-405 -9 c0 -51 -11 -78 -24 -58 -8 14 5 112 15 112 5 0 9 -24 9 -54z
m90 44 c0 -5 -11 -10 -25 -10 -14 0 -25 -4 -25 -8 0 -5 11 -14 25 -20 30 -14
33 -47 7 -61 -20 -11 -65 -4 -57 9 3 5 14 6 24 3 30 -8 34 14 6 33 -24 16 -33
43 -18 57 10 11 63 8 63 -3z m40 -50 c0 -33 -4 -60 -10 -60 -6 0 -10 27 -10
60 0 33 4 60 10 60 6 0 10 -27 10 -60z m90 50 c0 -5 -12 -10 -27 -10 l-28 -1
33 -27 c37 -31 40 -47 12 -62 -22 -12 -60 -5 -60 11 0 6 9 8 20 4 38 -12 42 6
9 35 -29 24 -32 30 -20 44 15 17 61 22 61 6z m-367 -190 c-19 -8 -23 -17 -23
-55 0 -25 -4 -45 -10 -45 -5 0 -10 22 -10 49 0 39 -4 51 -17 54 -10 3 5 5 32
5 39 1 45 -1 28 -8z m47 -12 l1 -23 20 24 c24 29 37 20 16 -12 -13 -21 -13
-26 1 -50 9 -14 12 -30 8 -34 -5 -4 -11 -3 -13 3 -2 6 -10 20 -18 30 -14 18
-15 18 -21 -3 -7 -27 -24 -31 -24 -5 1 63 29 130 30 70z m470 7 c17 -21 8 -50
-17 -53 -13 -2 -23 -12 -25 -23 -2 -11 -7 -21 -13 -22 -11 -2 -20 77 -11 99 7
18 50 18 66 -1z m45 -34 c6 -42 9 -48 26 -44 10 3 19 0 19 -6 0 -6 -13 -11
-29 -11 -24 0 -29 5 -35 31 -9 45 -7 79 3 79 5 0 12 -22 16 -49z m-397 -7 c-3
-46 -27 -78 -45 -60 -4 4 0 12 10 17 12 7 17 22 17 49 0 22 5 40 11 40 6 0 9
-19 7 -46z m117 36 c3 -5 1 -18 -5 -29 -7 -13 -7 -22 0 -26 5 -3 10 -1 10 4 0
6 4 11 10 11 5 0 8 -13 7 -28 -2 -25 -6 -28 -40 -29 -41 -2 -55 13 -41 45 4 9
6 21 5 26 -7 29 38 51 54 26z m151 -5 c4 -8 1 -21 -4 -28 -7 -8 -7 -18 -2 -27
12 -18 13 -40 2 -40 -4 0 -12 10 -17 22 -15 32 -35 35 -35 4 0 -14 -4 -26 -10
-26 -5 0 -10 25 -10 55 l0 55 35 0 c23 0 38 -6 41 -15z"/>
<path d="M2198 4120 c-3 -36 -1 -40 19 -40 27 0 27 2 11 47 -16 44 -25 42 -30
-7z"/>
<path d="M3431 3933 c-11 -23 -10 -29 5 -40 25 -18 42 -16 54 7 8 15 6 23 -12
40 -28 26 -32 25 -47 -7z"/>
<path d="M3727 3642 c-27 -18 -27 -19 -8 -36 19 -17 20 -17 35 13 25 48 19 53
-27 23z"/>
<path d="M840 2966 c0 -5 72 -48 75 -44 1 2 6 13 9 26 7 21 4 22 -38 22 -25 0
-46 -2 -46 -4z"/>
<path d="M2332 2765 c-7 -14 -28 -35 -47 -46 -29 -17 -35 -27 -35 -54 0 -27 6
-37 27 -47 15 -7 37 -28 48 -45 16 -26 26 -32 55 -32 29 0 39 6 55 32 11 18
30 36 43 42 18 8 22 18 22 51 0 34 -4 43 -25 52 -14 7 -34 25 -43 42 -14 24
-24 30 -53 30 -29 0 -38 -5 -47 -25z"/>
<path d="M2330 2469 c-8 -18 -27 -37 -47 -47 -28 -14 -33 -21 -33 -52 0 -29 5
-39 24 -48 14 -6 35 -25 47 -41 18 -25 30 -31 61 -31 31 0 40 5 52 28 8 15 26
34 39 41 19 10 26 23 29 51 3 34 0 40 -29 55 -17 10 -37 30 -43 46 -11 25 -18
29 -50 29 -33 0 -39 -4 -50 -31z"/>
<path d="M2621 2464 c-12 -20 -35 -41 -51 -47 -26 -10 -30 -17 -30 -47 0 -30
4 -37 30 -47 16 -6 38 -25 47 -42 28 -48 70 -43 128 14 57 58 62 99 14 134
-16 12 -35 33 -41 47 -9 18 -19 24 -44 24 -26 0 -36 -6 -53 -36z"/>
<path d="M2328 2171 c-39 -69 -123 -77 -177 -16 l-30 34 -20 -26 c-39 -49 -23
-115 33 -138 48 -20 734 -20 782 0 54 22 69 77 39 135 -19 37 -26 37 -48 0
-38 -64 -143 -59 -183 9 -15 26 -25 31 -55 31 -28 0 -39 -5 -43 -18 -28 -88
-174 -88 -202 0 -4 13 -15 18 -42 18 -30 0 -40 -5 -54 -29z"/>
<path d="M752 2528 c-17 -17 -15 -63 3 -78 27 -22 109 -25 129 -5 24 24 17 67
-14 82 -32 16 -102 17 -118 1z"/>
<path d="M4200 2217 c0 -64 55 -73 62 -11 5 41 3 44 -34 44 -25 0 -28 -3 -28
-33z"/>
<path d="M3851 1462 c-51 -83 -165 -215 -290 -335 l-112 -108 56 -64 c51 -59
64 -95 29 -81 -7 3 -16 0 -20 -6 -5 -7 -2 -8 6 -3 9 6 11 4 6 -4 -5 -7 -14
-10 -21 -8 -15 6 -14 -20 2 -48 10 -18 16 -16 90 40 128 96 311 286 386 401
37 55 67 103 67 106 0 3 -21 -6 -47 -18 -27 -13 -63 -27 -82 -30 l-33 -7 6 59
c3 32 3 82 -2 110 l-7 52 -34 -56z"/>
<path d="M1877 933 c-13 -13 -7 -32 14 -44 17 -9 24 -8 36 4 13 12 12 16 -2
31 -17 17 -37 21 -48 9z"/>
<path d="M1836 848 c-3 -13 -6 -26 -6 -29 0 -10 51 -30 61 -24 17 11 9 44 -13
59 -30 21 -35 20 -42 -6z"/>
<path d="M2067 801 c-16 -27 -16 -29 2 -34 16 -4 20 2 23 29 5 42 -2 43 -25 5z"/>
<path d="M2470 720 l0 -71 32 3 c27 2 33 8 40 36 5 17 5 47 0 65 -7 27 -13 33
-40 35 l-32 3 0 -71z"/>
<path d="M1976 475 c-3 -9 0 -15 9 -15 16 0 20 16 6 24 -5 3 -11 -1 -15 -9z"/>
<path d="M3040 483 c0 -13 5 -23 10 -23 13 0 13 11 0 30 -8 12 -10 11 -10 -7z"/>
<path d="M2205 457 c-4 -10 -5 -21 -1 -24 10 -10 18 4 13 24 -4 17 -4 17 -12
0z"/>
<path d="M2710 260 c0 -15 5 -20 18 -18 9 2 17 10 17 18 0 8 -8 16 -17 18 -13
2 -18 -3 -18 -18z"/>
<path d="M2490 264 c0 -8 5 -12 10 -9 6 3 10 10 10 16 0 5 -4 9 -10 9 -5 0
-10 -7 -10 -16z"/>
<path d="M2480 217 c0 -19 16 -31 24 -18 3 5 -1 14 -9 21 -12 10 -15 10 -15
-3z"/>
<path d="M2620 260 c0 -15 5 -20 18 -18 9 2 17 10 17 18 0 8 -8 16 -17 18 -13
2 -18 -3 -18 -18z"/>
</g>
</svg>
