<svg xmlns="http://www.w3.org/2000/svg" width="136" height="34" viewBox="0 0 136 34" fill="none"><path fill-rule="evenodd" clip-rule="evenodd" d="M80.1994 27.4285C85.8354 27.4285 90.4042 22.8596 90.4042 17.2237C90.4042 11.5878 85.8354 7.01892 80.1994 7.01892C74.5635 7.01892 69.9947 11.5878 69.9947 17.2237C69.9947 22.8596 74.5635 27.4285 80.1994 27.4285ZM80.1994 24.823C84.3964 24.823 87.7987 21.4207 87.7987 17.2237C87.7987 13.0267 84.3964 9.62439 80.1994 9.62439C76.0025 9.62439 72.6001 13.0267 72.6001 17.2237C72.6001 21.4207 76.0025 24.823 80.1994 24.823Z" fill="white"></path><path d="M111.131 22.627C111.716 23.0611 111.838 23.8971 111.324 24.4141C109.476 26.2757 106.914 27.4285 104.083 27.4285C98.447 27.4285 93.8782 22.8596 93.8782 17.2237C93.8782 11.5878 98.447 7.01892 104.083 7.01892C107.261 7.01892 110.1 8.47168 111.971 10.7493C112.423 11.2987 112.242 12.0998 111.646 12.487C111.036 12.8829 110.227 12.6922 109.741 12.151C108.35 10.6001 106.33 9.62439 104.083 9.62439C99.886 9.62439 96.4837 13.0267 96.4837 17.2237C96.4837 21.4207 99.886 24.823 104.083 24.823C106.072 24.823 107.883 24.0586 109.238 22.8075C109.76 22.3247 110.559 22.203 111.131 22.627Z" fill="white"></path><path d="M131.66 27.4285C130.898 27.4463 128.726 27.4285 127.196 27.4463C126.603 27.4367 126.098 27.4285 125.795 27.4285C120.159 27.4285 115.59 22.8596 115.59 17.2237C115.59 11.5878 120.159 7.01892 125.795 7.01892C131.205 7.01892 135.632 11.2293 135.978 16.5522C135.992 16.6296 136 16.708 136 16.7894V21.349C136 22.0685 135.416 22.6518 134.697 22.6518C133.978 22.6518 133.395 22.0685 133.395 21.349V17.4408L133.393 17.3738L133.395 17.2237C133.395 13.0267 129.992 9.62439 125.795 9.62439C121.599 9.62439 118.196 13.0267 118.196 17.2237C118.196 21.4207 121.599 24.823 125.795 24.823H132.309C133.028 24.823 133.612 25.4063 133.612 26.1257C133.612 26.8452 133.028 27.4285 132.309 27.4285H131.66Z" fill="white"></path><path d="M58.3786 24.823L58.4871 24.8235C58.4988 24.8235 58.5105 24.8235 58.5223 24.8235C58.534 24.8234 58.5457 24.8234 58.5575 24.8234C58.6407 24.8232 58.7257 24.823 58.8128 24.823C60.0554 24.823 61.0099 24.3754 61.7268 23.8225C62.4437 23.2696 62.8022 22.5725 62.8022 21.7311C62.8022 20.8657 62.4198 20.2286 61.6551 19.82C60.8904 19.3872 59.7075 18.9666 58.1064 18.5579C56.6487 18.1733 55.4538 17.7886 54.5218 17.404C53.6137 16.9953 52.8251 16.4063 52.156 15.6371C51.5107 14.8438 51.1881 13.8101 51.1881 12.536C51.1881 12.4925 51.187 12.4762 51.1862 12.4642C51.1851 12.4479 51.1846 12.4396 51.1881 12.3812V12.2205C51.2652 11.3313 51.5824 10.5292 52.0889 9.79548C52.6863 8.93006 53.5347 8.24493 54.6339 7.7401C55.7093 7.25931 56.9624 7.01892 58.3724 7.01892C58.4106 7.01892 58.4488 7.01901 58.487 7.01921C61.665 7.01921 64.5038 8.47168 66.3753 10.7493C66.8268 11.2987 66.6462 12.0998 66.0499 12.487C65.44 12.8829 64.631 12.6922 64.1454 12.151C62.7542 10.6001 60.7346 9.62443 58.4871 9.62439H58.3786C58.3373 9.62446 58.3123 9.62439 58.27 9.62439C57.0274 9.62439 56.1753 10.0719 55.4584 10.6248C54.9501 11.0168 54.6221 11.4813 54.4741 12.0182C54.4357 12.1575 54.4258 12.3025 54.4258 12.447V12.6641C54.4258 13.3132 54.6532 13.7259 55.0595 14.1587C55.4896 14.5673 56.0154 14.9039 56.6367 15.1683C57.2819 15.4087 58.1661 15.6852 59.2893 15.9977C60.6992 16.3823 61.8463 16.7669 62.7305 17.1516C63.6147 17.5122 64.3674 18.0651 64.9888 18.8103C65.634 19.5555 65.9685 20.5291 65.9924 21.7311C65.9924 22.8129 65.6937 23.7865 65.0963 24.6519C64.4989 25.5173 63.6505 26.2024 62.5513 26.7073C61.4759 27.1881 60.2227 27.4285 58.8128 27.4285C58.7399 27.4285 58.6672 27.4281 58.5947 27.4274L58.4872 27.4285C55.3091 27.4285 52.5779 26.0092 50.7063 23.7315C50.2549 23.1822 50.4355 22.3811 51.0318 21.9939C51.6417 21.5979 52.4507 21.7887 52.9363 22.3299C54.3053 23.856 56.1743 24.7924 58.3786 24.823Z" fill="white"></path><path fill-rule="evenodd" clip-rule="evenodd" d="M3.83121 21.8043C1.61394 21.132 0 19.0721 0 16.6352C0 14.206 1.60377 12.1514 3.81025 11.4724C5.97272 4.81368 12.2281 0 19.6078 0C26.9773 0 33.2256 4.80039 35.3963 11.4448C37.6504 12.0942 39.2992 14.1721 39.2992 16.6352C39.2992 19.1059 37.6402 21.1891 35.3754 21.8315C33.1856 28.4429 26.9537 33.2127 19.6078 33.2127C12.2518 33.2127 6.01291 28.4299 3.83121 21.8043ZM32.5769 22.0359H6.9393C9.04036 27.0422 13.9886 30.5583 19.7581 30.5583C25.5275 30.5583 30.4758 27.0422 32.5769 22.0359ZM32.5538 11.2344C30.4398 6.25718 25.5065 2.76662 19.7581 2.76662C14.0096 2.76662 9.07639 6.25718 6.96235 11.2344H32.5538ZM2.2982 16.6352C2.2982 14.9217 3.68727 13.5327 5.40077 13.5327H33.8985C35.612 13.5327 37.001 14.9217 37.001 16.6352C37.001 18.3487 35.612 19.7378 33.8985 19.7378H5.40076C3.68726 19.7378 2.2982 18.3487 2.2982 16.6352Z" fill="white"></path></svg>